<?xml version="1.0" standalone="no"?>
<!DOCTYPE svg PUBLIC "-//W3C//DTD SVG 20010904//EN"
 "http://www.w3.org/TR/2001/REC-SVG-20010904/DTD/svg10.dtd">
<svg version="1.0" xmlns="http://www.w3.org/2000/svg"
 width="781.000000pt" height="735.000000pt" viewBox="0 0 781.000000 735.000000"
 preserveAspectRatio="xMidYMid meet">

<g transform="translate(0.000000,735.000000) scale(0.100000,-0.100000)"
fill="#000000" stroke="none">
<path d="M3627 6116 c-8 -9 -20 -16 -25 -16 -16 0 -92 -92 -154 -187 -22 -35
-45 -63 -49 -63 -5 0 -24 -24 -43 -54 -19 -30 -44 -60 -55 -66 -12 -6 -21 -16
-21 -23 0 -7 -21 -34 -46 -62 -26 -27 -58 -63 -71 -80 -91 -109 -467 -495
-483 -495 -4 0 -25 -19 -47 -43 -22 -24 -53 -53 -69 -66 -16 -12 -47 -39 -69
-59 -21 -20 -60 -54 -85 -75 -89 -75 -116 -98 -160 -138 -25 -23 -62 -52 -83
-65 -20 -13 -49 -38 -64 -54 -14 -17 -31 -30 -38 -30 -6 0 -28 -16 -49 -35
-21 -19 -41 -35 -44 -35 -2 0 -27 -16 -53 -35 -27 -19 -53 -35 -58 -35 -6 0
-16 -8 -23 -19 -7 -10 -37 -33 -65 -50 l-53 -33 0 -211 1 -212 57 64 c78 87
356 364 428 428 32 29 77 64 99 79 22 15 46 35 53 45 7 11 17 19 22 19 11 0
93 56 126 86 13 11 48 32 78 47 31 15 56 31 56 35 0 4 42 28 93 52 50 24 94
47 97 51 3 4 55 26 115 49 60 23 112 46 115 50 7 12 253 74 353 90 42 7 77 16
77 20 0 11 240 30 373 30 130 0 359 -19 367 -30 3 -4 41 -12 85 -19 104 -17
348 -79 355 -91 3 -5 31 -18 60 -29 114 -40 164 -61 169 -69 3 -4 48 -28 99
-52 50 -24 92 -47 92 -52 0 -5 12 -14 28 -20 37 -17 125 -70 137 -83 14 -16
75 -58 107 -74 15 -8 25 -17 23 -21 -2 -3 15 -18 38 -33 23 -15 69 -51 101
-80 101 -88 316 -304 316 -316 0 -6 6 -11 14 -11 14 0 53 73 82 155 8 21 19
42 24 45 5 3 12 25 16 48 5 33 4 42 -8 42 -8 0 -34 18 -59 40 -24 22 -48 40
-52 40 -8 0 -95 57 -107 70 -14 15 -89 70 -95 70 -4 0 -25 18 -47 40 -22 22
-45 40 -52 40 -6 0 -34 21 -63 48 -28 26 -70 63 -94 82 -54 44 -131 112 -144
126 -5 6 -34 30 -64 55 -30 24 -75 65 -99 92 -25 26 -48 47 -52 47 -12 0 -431
429 -478 490 -11 14 -36 43 -57 64 -20 21 -44 51 -53 65 -9 14 -27 34 -38 43
-12 10 -34 38 -48 63 -15 24 -32 48 -39 52 -7 4 -33 37 -57 73 -24 36 -50 71
-57 78 -7 7 -13 17 -13 22 0 12 -62 70 -76 70 -7 0 -14 6 -16 13 -7 20 -150
16 -171 -5 -34 -34 -119 -34 -154 0 -23 24 -134 29 -156 8z m132 -136 c67 -34
110 -35 183 -6 79 32 113 33 136 4 9 -11 25 -29 34 -39 9 -10 22 -28 29 -41 6
-13 25 -40 41 -60 16 -21 27 -38 23 -38 -4 0 7 -14 25 -31 17 -17 37 -43 45
-58 8 -14 30 -42 51 -61 20 -19 39 -42 43 -51 7 -18 98 -126 149 -176 36 -35
39 -43 17 -43 -8 0 -15 3 -15 8 0 4 -21 15 -48 26 -57 23 -142 75 -142 87 0 5
-5 9 -11 9 -12 0 -87 59 -135 106 -52 51 -94 78 -94 60 0 -30 22 -116 30 -116
4 0 11 -12 14 -27 9 -37 78 -207 87 -213 11 -8 30 -62 25 -68 -8 -8 -56 27
-88 64 -17 19 -36 34 -44 34 -7 0 -20 12 -28 28 -8 15 -35 47 -60 71 -25 24
-46 47 -46 52 0 5 -13 28 -30 51 -16 22 -30 47 -30 53 0 7 -6 15 -13 18 -7 2
-21 22 -32 43 -46 91 -70 95 -121 24 -20 -27 -39 -50 -43 -50 -4 0 -17 -17
-29 -37 -20 -37 -142 -177 -148 -170 -5 4 64 218 75 231 5 6 12 26 16 43 6 29
4 32 -12 26 -21 -8 -74 -55 -152 -136 -31 -31 -61 -57 -68 -57 -6 0 -20 -11
-31 -25 -21 -26 -148 -115 -165 -115 -6 0 -4 6 5 13 9 6 33 32 53 57 47 59 85
103 145 170 28 30 50 60 50 66 0 5 15 26 33 46 17 20 37 43 42 51 93 141 143
197 174 197 12 0 39 -9 60 -20z"/>
<path d="M3700 4864 c-19 -2 -78 -9 -130 -15 -128 -14 -334 -57 -338 -69 -2
-6 -11 -10 -20 -10 -28 -1 -247 -79 -250 -90 -2 -5 -8 -10 -13 -10 -14 0 -193
-82 -199 -91 -7 -10 -127 -77 -152 -86 -10 -3 -18 -9 -18 -13 0 -5 -34 -30
-75 -55 -41 -26 -75 -51 -75 -55 0 -4 -23 -23 -51 -41 -28 -17 -57 -43 -66
-56 -8 -12 -21 -23 -28 -23 -7 0 -31 -20 -54 -45 -23 -25 -45 -45 -49 -45 -9
0 -187 -179 -187 -189 0 -3 -20 -27 -45 -53 -65 -66 -124 -137 -131 -156 -4
-9 -19 -30 -33 -45 -38 -41 -60 -77 -48 -77 6 0 15 6 19 13 8 12 26 24 103 65
25 13 53 33 63 44 11 10 30 24 44 29 24 9 33 3 113 -81 48 -49 93 -90 98 -90
6 0 28 -20 49 -45 20 -25 42 -45 48 -45 5 0 30 -19 55 -42 49 -46 134 -108
149 -108 5 0 22 -13 37 -29 16 -16 52 -41 79 -56 28 -15 55 -33 60 -40 6 -7
51 -32 100 -55 50 -24 92 -47 95 -51 6 -8 61 -32 155 -66 39 -14 72 -29 75
-33 7 -9 254 -79 308 -87 23 -3 42 -9 42 -13 0 -4 46 -14 103 -21 193 -26 744
-12 767 19 3 4 34 13 70 20 90 18 284 74 291 84 3 5 26 15 50 23 67 21 172 64
178 73 3 5 44 28 90 51 46 23 93 51 104 62 11 10 30 22 41 25 25 8 87 53 99
71 4 7 12 13 18 13 14 0 91 57 152 112 29 26 57 48 63 48 6 0 25 18 42 39 18
22 46 48 62 58 17 9 30 21 30 26 0 5 40 48 88 97 49 49 96 100 106 115 17 26
17 27 -18 59 -20 18 -36 37 -36 42 0 5 -60 67 -133 137 -193 187 -199 192
-240 220 -21 15 -53 40 -70 57 -18 17 -46 38 -64 47 -18 8 -43 25 -56 36 -28
25 -53 41 -119 74 -26 13 -53 30 -60 37 -7 7 -52 30 -98 51 -47 20 -98 45
-115 55 -34 20 -236 90 -260 90 -8 0 -15 4 -15 9 0 10 -158 44 -305 66 -98 15
-425 27 -495 19z m-360 -248 c-73 -49 -230 -224 -230 -255 0 -6 -5 -11 -11
-11 -14 0 -64 -113 -86 -196 -10 -38 -22 -72 -28 -76 -15 -10 -13 -357 1 -366
6 -4 15 -23 18 -42 16 -80 77 -230 97 -238 4 -2 23 -27 41 -55 38 -61 118
-141 188 -188 65 -45 73 -64 23 -54 -21 4 -39 11 -41 16 -2 5 -12 9 -22 9 -30
0 -261 80 -277 96 -8 8 -20 14 -27 14 -16 0 -169 69 -176 79 -3 4 -43 26 -90
50 -47 24 -92 49 -100 57 -8 8 -44 33 -80 56 -36 24 -74 50 -84 60 -11 10 -38
30 -60 45 -23 16 -56 42 -73 58 -18 17 -56 50 -84 75 -29 25 -72 64 -96 88
l-44 43 33 39 c18 21 35 39 38 39 3 1 48 42 100 91 52 50 100 90 107 90 6 0
18 9 25 19 7 10 43 38 78 62 36 23 70 48 75 54 14 16 131 85 144 85 6 0 11 5
11 10 0 6 44 31 98 58 53 26 99 50 102 53 7 10 174 76 210 84 16 4 30 10 30
15 0 4 19 13 43 19 23 6 65 18 92 26 79 22 96 19 55 -9z m1136 -2 c54 -14 101
-29 104 -33 3 -5 16 -12 30 -16 59 -18 205 -78 208 -86 2 -5 8 -9 13 -9 15 0
173 -80 184 -93 6 -7 21 -18 35 -24 56 -28 114 -63 139 -85 14 -13 50 -39 78
-58 29 -19 53 -38 53 -42 0 -4 17 -19 38 -32 21 -13 81 -65 133 -115 52 -50
97 -91 100 -91 4 0 14 -11 23 -25 17 -25 16 -26 -49 -90 -36 -36 -89 -83 -117
-105 -28 -23 -59 -52 -70 -65 -11 -14 -23 -23 -27 -21 -4 3 -26 -12 -49 -33
-23 -22 -75 -58 -114 -82 -40 -24 -80 -51 -89 -61 -10 -9 -52 -33 -96 -55 -43
-21 -80 -41 -83 -45 -8 -10 -180 -88 -195 -88 -7 0 -15 -5 -17 -10 -3 -11
-136 -58 -228 -81 -30 -7 -57 -16 -60 -20 -5 -7 -82 -30 -86 -26 -6 6 27 38
81 77 33 24 67 53 75 64 8 12 29 34 47 50 18 16 33 34 33 39 0 9 49 78 63 88
14 10 52 99 72 169 10 36 22 67 26 70 12 9 29 135 29 214 0 79 -18 217 -30
226 -4 3 -19 44 -34 91 -23 75 -38 107 -68 144 -5 6 -21 30 -37 54 -28 43
-157 181 -170 181 -12 1 -66 50 -55 50 7 0 56 -11 110 -26z m-416 -10 c36 -9
67 -20 70 -23 3 -3 40 -24 83 -45 43 -21 81 -45 84 -52 3 -8 11 -14 18 -14 16
0 146 -139 166 -177 7 -16 26 -48 40 -73 51 -86 64 -150 63 -320 0 -115 -4
-169 -16 -210 -10 -30 -20 -65 -24 -77 -3 -13 -10 -23 -14 -23 -5 0 -12 -10
-16 -22 -4 -13 -20 -42 -35 -65 -16 -23 -29 -44 -29 -46 0 -6 -129 -137 -135
-137 -3 0 -24 -13 -47 -30 -22 -16 -47 -30 -55 -30 -7 0 -13 -4 -13 -9 0 -26
-223 -81 -329 -81 -109 0 -303 44 -335 75 -8 8 -18 15 -23 15 -18 0 -121 78
-178 135 -59 59 -81 89 -111 154 -8 19 -22 40 -29 47 -42 42 -73 256 -57 389
12 95 47 225 61 225 4 0 17 22 29 49 46 100 177 227 292 282 36 17 67 35 70
39 4 7 101 32 170 44 51 9 237 -3 300 -20z"/>
<path d="M3780 4270 c0 -5 -8 -10 -17 -10 -9 0 -49 -16 -88 -36 -58 -28 -81
-46 -114 -91 -22 -30 -41 -62 -41 -69 0 -8 -4 -14 -10 -14 -28 0 -43 -194 -20
-265 33 -99 145 -216 243 -252 85 -31 269 -16 319 27 7 6 34 26 59 45 26 19
59 56 74 82 16 26 31 50 35 53 26 19 39 200 19 259 -13 37 -18 38 -65 6 -68
-46 -180 -28 -227 37 -29 38 -29 131 -1 179 17 28 18 37 8 47 -16 15 -174 17
-174 2z"/>
<path d="M1868 1943 c-17 -4 -18 -26 -18 -284 l0 -279 195 0 195 0 0 45 0 44
-142 3 -143 3 -3 236 -2 236 -33 0 c-17 0 -40 -2 -49 -4z"/>
<path d="M3167 1943 c-4 -3 -7 -132 -7 -285 l0 -278 50 0 50 0 2 193 c3 177 4
190 18 162 8 -16 18 -32 21 -35 4 -3 27 -48 50 -100 24 -52 49 -101 56 -108 6
-6 15 -21 18 -32 9 -27 55 -26 78 1 10 11 36 62 58 112 23 51 45 94 49 97 5 3
18 26 29 50 l20 45 0 -192 1 -193 50 0 50 0 0 285 0 285 -55 0 c-54 0 -55 -1
-70 -37 -9 -21 -20 -40 -25 -43 -4 -3 -27 -48 -50 -100 -23 -52 -48 -98 -55
-103 -7 -4 -19 -23 -25 -42 -6 -19 -15 -35 -19 -35 -5 0 -16 20 -26 45 -9 25
-22 51 -29 58 -6 6 -31 53 -55 102 -24 50 -48 92 -52 95 -4 3 -12 18 -18 33
-9 24 -15 27 -59 27 -27 0 -52 -3 -55 -7z"/>
<path d="M4038 1944 c-5 -4 -8 -133 -8 -286 l0 -278 178 1 c109 0 189 5 208
12 110 42 125 215 24 269 -33 17 -34 19 -12 24 32 9 66 86 58 133 -7 46 -35
82 -72 94 -16 6 -32 15 -36 21 -8 13 -329 22 -340 10z m323 -113 c26 -32 24
-65 -7 -98 -25 -27 -30 -28 -122 -28 l-97 0 -3 64 c-5 96 -8 94 109 89 91 -3
103 -6 120 -27z m-21 -211 c0 -5 5 -10 12 -10 40 0 63 -75 35 -114 -15 -21
-81 -34 -169 -35 -85 -1 -88 1 -88 74 0 97 -3 95 111 95 59 0 99 -4 99 -10z"/>
<path d="M4938 1943 c-23 -4 -31 -15 -56 -76 -16 -40 -33 -82 -37 -94 -3 -13
-10 -23 -15 -23 -5 0 -12 -10 -15 -22 -11 -37 -77 -193 -85 -198 -6 -5 -60
-135 -60 -145 0 -3 24 -5 54 -5 l53 0 22 60 22 60 143 0 143 0 14 -42 c21 -65
36 -78 92 -78 49 0 49 0 42 27 -3 15 -10 30 -15 33 -9 6 -80 178 -80 196 0 7
-7 20 -16 29 -9 8 -24 38 -35 65 -10 28 -28 72 -38 100 -11 27 -26 57 -35 65
-9 9 -16 23 -16 31 0 8 -3 14 -7 15 -5 0 -17 2 -28 3 -11 1 -32 1 -47 -1z m66
-210 c15 -43 34 -84 42 -91 8 -7 14 -22 14 -32 0 -18 -7 -20 -95 -20 -52 0
-95 2 -95 4 0 18 61 169 74 181 9 9 16 21 16 26 0 5 4 9 8 9 5 0 21 -35 36
-77z"/>
<path d="M5460 1666 l0 -286 50 0 50 0 2 53 c1 28 2 59 4 67 1 8 2 23 3 33 1
14 11 17 71 17 66 0 71 -2 80 -25 5 -13 18 -33 29 -44 11 -11 29 -38 41 -61
20 -39 21 -40 75 -40 30 0 55 2 55 5 0 14 -41 85 -54 92 -12 7 -56 76 -56 87
0 3 15 14 34 26 20 12 44 40 57 66 18 39 21 56 16 110 -8 79 -30 113 -89 139
-24 11 -46 24 -50 29 -3 5 -76 11 -162 14 l-156 5 0 -287z m269 183 c70 -15
101 -68 81 -140 -14 -51 -45 -64 -154 -64 l-91 0 -3 94 c-2 51 -1 99 2 107 7
17 92 19 165 3z"/>
<path d="M6172 1943 c-6 -2 -10 -9 -6 -14 3 -5 0 -9 -5 -9 -8 0 -11 -87 -11
-271 l0 -270 51 3 52 3 4 249 c3 136 2 264 -2 282 -5 30 -9 34 -38 33 -18 0
-38 -3 -45 -6z"/>
<path d="M2615 1910 c-4 -17 -13 -36 -20 -43 -7 -8 -25 -45 -39 -83 -15 -38
-36 -88 -46 -112 -11 -23 -20 -49 -20 -57 0 -8 -4 -15 -8 -15 -5 0 -16 -17
-24 -37 -9 -21 -28 -66 -42 -99 -14 -34 -26 -67 -26 -73 0 -7 20 -11 53 -11
l52 0 20 58 20 57 144 0 144 0 20 -57 19 -58 54 0 c30 0 54 2 54 5 0 13 -73
190 -80 195 -4 3 -20 37 -34 75 -44 114 -59 145 -68 145 -4 0 -8 5 -8 11 0 7
-10 38 -22 70 l-23 59 -57 0 c-55 0 -57 -1 -63 -30z m74 -110 c4 0 13 -17 20
-37 7 -21 24 -66 37 -100 13 -34 24 -64 24 -67 0 -3 -43 -6 -95 -6 -88 0 -95
1 -95 20 0 11 4 20 9 20 5 0 26 46 47 103 21 56 40 94 42 85 2 -10 7 -18 11
-18z"/>
</g>
</svg>
